<?xml version="1.0" encoding="utf-8"?>
<!-- Generator: Adobe Illustrator 18.0.0, SVG Export Plug-In . SVG Version: 6.00 Build 0)  -->
<!DOCTYPE svg PUBLIC "-//W3C//DTD SVG 1.1//EN" "http://www.w3.org/Graphics/SVG/1.1/DTD/svg11.dtd">
<svg version="1.1" id="Calque_1" xmlns="http://www.w3.org/2000/svg" xmlns:xlink="http://www.w3.org/1999/xlink" x="0px" y="0px"
	 viewBox="0 0 3000 3000" enable-background="new 0 0 3000 3000" xml:space="preserve">
<path fill="#FFFFFF" d="M2552.2,1588.1L2552.2,1588.1c4.5-24.2,8.4-48.2,11.5-71.7c12.2-92.3,13.6-179.6,4.1-259.3l-0.2-1.6
	l-0.2-1.6c-60.5-291.8,90.3-624.4,90.3-624.4s-270.2-27.4-407.1,122.8c-30.2,33.2-56.9,70.3-78,112.3
	c-23.9-63.8-46.5-147.8-124.3-220.8c-33.4,71.1-98.1,134.3-98.1,134.3c25-406.6-250.1-578.3-433.9-645.4
	c-82.6-30.2-160.2-35-160.2-35s10.5,197.5-20.5,301c0,0-153.6,30.2-288.5,132.6c-53.2,40.4-101.5,84.2-141.9,132.5
	c-41.1,49.3-74.6,102.4-99.9,158.6c-16.1-25.3-34.3-48.6-54-70.2C614.3,602.1,344.1,629.5,344.1,629.5s150.8,332.6,90.4,624.4
	l-0.2,1.6l-0.2,1.6c-9.5,79.7-8.2,166.9,4,259.3c3.1,23.5,6.9,47.5,11.5,71.7c7.9,42.5,18,86,30.1,130l-100.5-15.2l66.1,221.7
	c41.8,140.2,105.4,271.6,189,390.4c66.7,94.7,147.1,180.5,236.1,258.2c262.3,229.1,630.5,329.1,630.5,329.1s368.1-100,630.5-329.1
	c89-77.7,169.4-163.4,236.1-258.2c83.6-118.8,147.2-250.1,189.1-390.4l66.1-221.7l-100.5,15.2
	C2534.2,1674.1,2544.2,1630.6,2552.2,1588.1 M885.8,1107.8c3.5-56.3,15.7-119.5,39.2-190.1c90-248.2,346.4-347.7,348.4-348.5
	c-1.1,1.4-77.1,108-41.9,220.3c202.6-124.2,260.9-270.9,260.3-526.2c3.1,1.4,451,99.9,305.8,770.8
	c145.1-18.9,243.7-189.8,243.7-189.8s224.7,464.1-137.7,665.2c-17.9,9.9-37.3,19.3-58.2,27.8c34.8-127.6,35.1-128.8,35.1-128.8
	s-1-0.7-7.4-1.7c-41.2-6.7-136.9-13.2-213.3,151.7c-3.4,7.3-9.8,21.5-13,29.4c-20.4,49.6-29.1,89.9-29.1,89.9l-47.7,20.3l-68.9,29.3
	l-0.3-0.1l-0.3,0.1l-68.9-29.3l-47.7-20.3c0,0-8.7-40.3-29.1-89.9c-3.3-8-6.9-16.3-10.9-24.7c-37.6-80.3-104.5-170.9-211.9-156.3
	c-3.1,0.4-6.3,0.9-9.5,1.5c14.6,53.7,35.9,131.6,36.2,132.7c-0.6-0.2-26-8.3-61.1-28c-76.6-43.2-199.5-142.3-212-337.6v0
	C884.3,1154.2,884.2,1131.6,885.8,1107.8 M585.9,1882.6l113.9,17.3c0,0-64.2-136-100.7-311.8c-20.3-97.7-32-207.8-19.4-313.6
	c41.5-292.1-36.2-478.5-37.2-480.8v0c0,0,182.8,31.7,196.2,313.1c0.5,10.7,0.8,21.7,0.8,33.1c0,10.9-0.2,22.1-0.8,33.7
	c0,1.1-0.1,2.2-0.1,3.3c4.3,83.7,24.7,161.7,60.6,231.8c24.4,47.7,56.1,91.7,94,130.8c16.7,17.2,34.7,33.4,53.7,48.6
	c14.9,11.9,30.5,23.1,46.7,33.7c61.3,39.8,111.8,56.7,121.3,59.7l67.2,21c13.7,2.6,26.9,4.4,39.6,5.6l6.2-50.5
	c0,0,97.3,70.3,52.8,131.3c-0.9,1.2-1.8,2.4-2.8,3.6c-12.8,15.5-35.3,30.3-71.3,43.1C1073.9,1727.6,891.1,1707,891.1,1707
	s25.4,201.7,280.1,259.3c0,0-48.8,43.4-123.3,47.3c25.9,17.2,57.6,30.8,86.5,41c44.6,15.7,82.7,23.3,82.7,23.3l-23.2,5.7l-166,41
	l194.7,504.5C1222.6,2629.1,749.4,2430.6,585.9,1882.6 M1732.8,2341.4c-16.7-4-43.7-0.7-73.9,41.1
	c-40.6,56.1-130.4,182.6-157.7,324.6c-0.1-0.6-0.2-1.1-0.3-1.7c-0.1,0.6-0.2,1.1-0.3,1.7c-27.3-142-117.1-268.5-157.7-324.6
	c-30.2-41.8-57.2-45.1-73.9-41.1c-11.2,2.7-17.8,8.7-17.8,8.7l-47.1-136.9l-18.8-54.8c0.3,0.1,7.3,2.2,18.8,5.7
	c25.8,7.8,74.4,22.5,124.3,37.6c0.1,0,0.1,0,0.2,0c0,0,0-0.1,0-0.1c5.5-30,11.8-56.6,18.8-80.3c15.5-53,34-91.1,52.7-118.3
	c9.5-13.8,19-24.9,28.2-33.7c39.1-37.6,72.4-35.4,72.4-35.4s0.1,0,0.4,0c0.2,0,0.3,0,0.3,0s33.4-2.2,72.4,35.4
	c9.2,8.9,18.7,19.9,28.2,33.7c18.7,27.3,37.2,65.3,52.7,118.3c7,23.6,13.3,50.3,18.8,80.3c0,0,0,0.1,0,0.1c0,0,0.1,0,0.1,0
	c49.8-15.1,98.5-29.8,124.2-37.6c11.6-3.5,18.5-5.6,18.8-5.7l-18.8,54.8l-47.1,136.9C1750.6,2350.1,1744,2344.1,1732.8,2341.4
	 M1779.1,2629.1l194.7-504.5l-166-41l-23.2-5.7c0,0,38.1-7.6,82.7-23.3c28.9-10.2,60.6-23.8,86.5-41
	c-74.5-3.9-123.3-47.3-123.3-47.3c254.6-57.5,280.1-259.3,280.1-259.3s-182.8,20.6-315.5,128.5c-36-12.8-58.5-27.6-71.3-43.1
	c-1-1.2-1.9-2.4-2.8-3.6c-44.4-61,52.8-131.3,52.8-131.3l6.2,50.5c12.7-1.1,25.9-3,39.6-5.6l67.2-21c9.5-3,60-19.9,121.3-59.7
	c16.2-10.5,31.7-21.8,46.7-33.7c109.1-84.9,207.9-214.8,207.9-391.2v-0.1c0-7.6-0.1-15.4-0.5-23.2c-0.8-18.7-0.9-36.4-0.5-53.3v-0.1
	c8.1-293.8,196.8-326.5,196.8-326.5s-78.9,186.9-37.2,480.8c12.7,105.8,1.7,215.8-18.7,313.6c-36.5,175.8-100.7,311.8-100.7,311.8
	l113.9-17.3C2252.3,2430.6,1779.1,2629.1,1779.1,2629.1"/>
</svg>
